<?xml version="1.0" encoding="utf-8"?>
<!--
  - Copyright (c) 2023. kinkycraft.com
  - GNU General Public License v3.0 or later [GPL-3.0-or-later]
  - This program is free software: you can redistribute it and/or modify it under the terms of the GNU General Public License as published by the Free Software Foundation, either version 3 of the License, or (at your option) any later version.
  - This program is distributed in the hope that it will be useful, but WITHOUT ANY WARRANTY; without even the implied warranty of MERCHANTABILITY or FITNESS FOR A PARTICULAR PURPOSE. See the GNU General Public License for more details. See <https://www.gnu.org/licenses/> <https://spdx.org/licenses/GPL-3.0-or-later.html>
  -->

<!-- Generator: Adobe Illustrator 27.3.1, SVG Export Plug-In . SVG Version: 6.00 Build 0)  -->
<svg version="1.1" id="Layer_1" xmlns="http://www.w3.org/2000/svg" xmlns:xlink="http://www.w3.org/1999/xlink" x="0px" y="0px"
	 viewBox="0 0 400 125" style="enable-background:new 0 0 400 125;" xml:space="preserve">
<style type="text/css">
	.st0{fill:#B22222;}
	.st1{fill:#FFFFFF;}
</style>
<g>
	<g>
		<path class="st0" d="M34.6,6.2c6.5,0,18.8,2,18.8,8.7c0,2.3-1.4,5.1-3.7,6.5H49c-0.9-1.3-5.8-10.1-15.6-10.1
			c-9.7,0-19.8,9.5-19.8,27.4c0,12.7,5.9,23.6,19.9,23.6c11.6,0,17.5-7.7,17.5-7.7l0.6,0.3c0,0-3.8,15-21.4,15
			c-17.7,0-27-13.8-27-29C3.1,23.4,15.3,6.2,34.6,6.2z"/>
		<path class="st0" d="M63.3,33.6c0-4.3-0.5-8.6-0.5-8.6s2.7-0.9,4.8-0.9c3.1,0,5.1,1.8,5.1,7.2c0,6.6-3.1,18-3.1,25.7
			c0,4.8,1.4,7,4.2,7c4.5,0,8.3-5.8,10.7-11.3c3.4-7.7,3.7-13.4,3.7-17.8c0-6.2-0.5-9.9-0.5-9.9s2.9-0.9,5-0.9
			c3.2,0,4.9,2.2,4.9,6.8c0,6.5-3.1,20-3.1,27.8c0,2.6,0.3,5.1,2.7,5.1c3.8,0,7.5-6.7,7.5-6.7l0.6,0.3c0,0-2.4,12.1-12.7,12.1
			c-3.8,0-7.2-1.7-7.2-6.6c0-2.1,0.6-5.1,0.6-5.1h-0.4c-3.4,6.5-7.7,12-15.7,12c-7.7,0-9.2-5.3-9.2-10.9
			C60.7,51.5,63.3,43.4,63.3,33.6z"/>
		<path class="st0" d="M115.1,44.4c0.7-10.3,1.5-24.3,1.5-30.9c0-4.6-0.2-6.1-0.2-6.1c1.3-0.4,2.4-0.8,3.8-0.8c3.8,0,7,1.6,7,5
			c0,4.5-3.2,37.5-3.8,51.2l15.4-0.4c5.3-0.2,9-0.8,11.2-1.9c0,7.9-1.7,8.6-8.4,8.6l-29-0.4C112.5,68.6,113.6,66.2,115.1,44.4z"/>
		<path class="st0" d="M159.7,34.3c0-5.4-1.1-9.3-1.1-9.3s2.9-0.9,5-0.9c3.5,0,5.5,2.4,5.5,6.5c0,9.3-3.2,21.1-3.2,29.3
			c0,2,0.3,3.8,2.5,3.8c4.4,0,7.9-6.7,7.9-6.7l0.6,0.3c0,0-2.5,12.1-12.6,12.1c-4.5,0-7.2-2.4-7.2-6.9
			C157,58.1,159.6,44.7,159.7,34.3z M159.9,10.7c0-3.1,2.7-5.8,5.7-5.8c3.1,0,5.8,2.7,5.8,5.8c0,3-2.7,5.7-5.8,5.7
			C162.6,16.3,159.9,13.6,159.9,10.7z"/>
		<path class="st0" d="M186.2,34.3c0-5.4-1.1-9.3-1.1-9.3s2.9-0.9,5-0.9c3.5,0,5.5,2.4,5.5,6.5c0,0.7-0.3,2.8-0.6,4.2h0.4
			c2.8-5.1,7.6-11,14.4-11c7.3,0,11.8,6.5,11.8,16.6c0,16.3-11.3,29.2-25.7,29.2c-2.6,0-4.1-0.4-4.5-0.6c-0.3,3.7-0.3,7.4-0.3,11.2
			c0,2.4,0.3,5.6,1.2,8.2c-1.7,0.3-3,0.4-4.1,0.4c-5.9,0-6.2-3.6-6.2-8C181.8,67.1,186.2,40.9,186.2,34.3z M196.9,65.5
			c10,0,14.9-14.1,14.9-24.4c0-5.9-1.7-11.8-5.6-11.8c-5.3,0-12,11.8-12.7,17.4c-0.5,4.2-1.1,8.5-1.7,14.1
			C192,63.9,193.6,65.5,196.9,65.5z"/>
		<path class="st0" d="M231.3,55.8h0.6c0,0,4.7,9,15.7,9c8.3,0,11.5-5.2,11.5-9.8c0-14.2-27.6-12.4-27.6-30.5
			c0-11.8,11.2-18.2,21.3-18.2c5.1,0,16.8,1,16.8,6.3c0,1.8-1.5,5.1-3.8,6.7h-0.6c0,0-5-8.3-13.4-8.3c-5.9,0-10.6,4.5-10.6,10
			c0,13.9,27.6,11.3,27.6,30c0,12.6-11.4,19-22.3,19c-6.7,0-18.8-2.5-18.8-7.9C227.6,60,229.3,57.4,231.3,55.8z"/>
		<path class="st0" d="M281,33.6c0-4.3-0.5-8.6-0.5-8.6s2.7-0.9,4.8-0.9c3.1,0,5.1,1.8,5.1,7.2c0,6.6-3.1,18-3.1,25.7
			c0,4.8,1.4,7,4.2,7c4.5,0,8.3-5.8,10.7-11.3c3.4-7.7,3.7-13.4,3.7-17.8c0-6.2-0.5-9.9-0.5-9.9s2.9-0.9,5-0.9
			c3.2,0,4.9,2.2,4.9,6.8c0,6.5-3.1,20-3.1,27.8c0,2.6,0.3,5.1,2.7,5.1c3.8,0,7.5-6.7,7.5-6.7l0.6,0.3c0,0-2.4,12.1-12.7,12.1
			c-3.8,0-7.2-1.7-7.2-6.6c0-2.1,0.6-5.1,0.6-5.1h-0.4c-3.4,6.5-7.7,12-15.7,12c-7.7,0-9.2-5.3-9.2-10.9
			C278.3,51.5,281,43.4,281,33.6z"/>
		<path class="st0" d="M332.2,34.3c0-5.4-1.1-9.3-1.1-9.3s2.9-0.9,5-0.9c3.5,0,5.5,2.4,5.5,6.5c0,2.6-0.8,5.2-0.8,5.2h0.4
			c3.1-6.3,7.3-12,14.8-12c7.2,0,8.7,5.5,8.7,12h0.4c3.1-6.3,7.3-12,14.8-12c7.2,0,9.1,4.8,9.1,11.3c0,8-2.8,18.2-2.8,24.8
			c0,2,0.3,3.8,2.5,3.8c4.4,0,7.9-6.7,7.9-6.7l0.6,0.3c0,0-2.5,12.1-12.6,12.1c-4.5,0-7.2-2.4-7.2-6.9c0-4.5,2.6-17.9,2.6-25.7
			c0-5.2-1.1-7.4-3.9-7.4c-4.2,0-7.7,5.9-9.9,11.4c-3,7-3.8,14.1-3.8,21.4c0,6.9-0.8,7-9.4,7c0-7.4,3.1-22.4,3.1-32.4
			c0-5.2-1.2-7.4-3.9-7.4c-4.2,0-7.7,5.9-9.9,11.4c-3,7-3.8,14.1-3.8,21.4c0,6.9-0.8,7-9.4,7C329,61,332.2,43.4,332.2,34.3z"/>
	</g>
	<g>
		<path class="st1" d="M4.8,108.2c0.2-3.4,0.5-8,0.5-10.2c0-1.5-0.1-2-0.1-2c0.4-0.1,0.8-0.3,1.2-0.3c1.3,0,2.3,0.5,2.3,1.6
			c0,1.5-1.1,12.4-1.3,16.9l5.1-0.1c1.8-0.1,3-0.3,3.7-0.6c0,2.6-0.6,2.9-2.8,2.8l-9.6-0.1C3.9,116.1,4.3,115.3,4.8,108.2z"/>
		<path class="st1" d="M25.3,101.3c4.1,0,6.5,3.1,6.5,6.8c0,4.1-2.7,8.4-7.5,8.4c-4,0-6.3-3.1-6.3-6.9
			C18,105.6,20.5,101.3,25.3,101.3z M28.5,107.8c0-2.7-0.9-5.2-3.2-5.2c-2.9,0-4.1,4.1-4.1,7.3c0,2.9,0.9,5.3,3.1,5.3
			C27,115.2,28.5,111.3,28.5,107.8z"/>
		<path class="st1" d="M35.7,104.8c0-1.8-0.4-3.1-0.4-3.1s1-0.3,1.6-0.3c1.2,0,1.8,0.8,1.8,2.1c0,0.9-0.3,1.7-0.3,1.7h0.1
			c1-1.9,2.4-3.9,4.4-3.9c1.3,0,1.6,0.7,1.6,1.4c0,0.7-0.4,1.4-0.7,1.8l-0.1,0.1c-0.6-0.5-1.3-0.8-1.9-0.8c-1.3,0-2.2,1.4-3,3.1
			c-1,2.3-1.3,4.6-1.3,7.1c0,2.3-0.3,2.3-3.1,2.3C34.6,113.6,35.7,107.8,35.7,104.8z"/>
		<path class="st1" d="M52.8,101.3c2.6,0,4.1,1.5,4.1,3.3c0,4.1-4.9,4.9-8.1,5c0,2.6,1.3,4.8,3.5,4.8c2.4,0,3.8-2.1,3.8-2.1l0.2,0.1
			c0,0-0.8,4.1-5.1,4.1c-3.3,0-5.6-2.6-5.6-6.4C45.6,105.5,48.9,101.3,52.8,101.3z M53.8,104.6c0-1-0.5-2.1-1.3-2.1
			c-2,0-3.5,3-3.8,6C51.2,108.5,53.8,107.6,53.8,104.6z"/>
		<path class="st1" d="M60.7,104.8c0-1.8-0.4-3.1-0.4-3.1s1-0.3,1.6-0.3c1.2,0,1.8,0.8,1.8,2.1c0,0.9-0.3,1.7-0.3,1.7h0.1
			c1-2.1,2.4-4,4.9-4c2.4,0,2.9,1.8,2.9,4h0.1c1-2.1,2.4-4,4.9-4c2.4,0,3,1.6,3,3.7c0,2.7-0.9,6-0.9,8.2c0,0.7,0.1,1.3,0.8,1.3
			c1.4,0,2.6-2.2,2.6-2.2l0.2,0.1c0,0-0.8,4-4.1,4c-1.5,0-2.4-0.8-2.4-2.3c0-1.5,0.9-5.9,0.9-8.5c0-1.7-0.4-2.4-1.3-2.4
			c-1.4,0-2.5,2-3.3,3.8c-1,2.3-1.3,4.6-1.3,7.1c0,2.3-0.3,2.3-3.1,2.3c0-2.4,1-7.4,1-10.7c0-1.7-0.4-2.4-1.3-2.4
			c-1.4,0-2.5,2-3.3,3.8c-1,2.3-1.3,4.6-1.3,7.1c0,2.3-0.3,2.3-3.1,2.3C59.6,113.6,60.7,107.8,60.7,104.8z"/>
		<path class="st1" d="M92.5,105.5c0.2-2.9,0.3-5.8,0.3-8c0-1.3,0-1.6,0-1.6c0.5-0.2,1.1-0.3,1.6-0.3c1.4,0,2,0.7,2,2.2
			c0,1.3-0.4,4.5-0.6,6.9c-0.3,2.9-0.4,6.3-0.4,8.6c0,0.9,0,1.8,0.1,2.7c-0.7,0.1-1.2,0.3-1.8,0.3c-0.9,0-1.7-0.5-1.7-1.4
			C91.9,114.4,92.1,111.9,92.5,105.5z"/>
		<path class="st1" d="M100.9,104.8c0-1.8-0.4-3.1-0.4-3.1s1-0.3,1.6-0.3c1.2,0,1.8,0.8,1.8,2.1c0,0.2-0.1,0.9-0.2,1.4h0.1
			c0.9-1.7,2.5-3.6,4.8-3.6c2.4,0,3.9,2.1,3.9,5.5c0,5.4-3.7,9.7-8.5,9.7c-0.9,0-1.4-0.1-1.5-0.2c-0.1,1.2-0.1,2.4-0.1,3.7
			c0,0.8,0.1,1.8,0.4,2.7c-0.5,0.1-1,0.1-1.4,0.1c-2,0-2-1.2-2-2.7C99.4,115.7,100.9,107,100.9,104.8z M104.4,115.1
			c3.3,0,4.9-4.7,4.9-8.1c0-2-0.5-3.9-1.8-3.9c-1.8,0-3.9,3.9-4.2,5.7c-0.2,1.4-0.4,2.8-0.5,4.6
			C102.8,114.6,103.3,115.1,104.4,115.1z"/>
		<path class="st1" d="M115,112.7h0.1c0,0,1.8,2.5,4,2.5c1.4,0,2.3-0.8,2.3-2c0-3.2-6-3.1-6-7.5c0-2.8,2.3-4.3,5.3-4.3
			c1.3,0,3.7,0.1,3.7,1.6c0,0.9-0.8,1.7-0.8,1.7h-0.1c0,0-1.5-2-3.3-2c-1.1,0-2.2,0.5-2.2,1.9c0,3.2,6,2.9,6,7.4
			c0,3-2.6,4.6-5.2,4.6c-1.7,0-4.5-0.4-4.5-2C114.2,113.6,115,112.7,115,112.7z"/>
		<path class="st1" d="M128,104.6c0-1.4-0.2-2.9-0.2-2.9s0.9-0.3,1.6-0.3c1,0,1.7,0.6,1.7,2.4c0,2.2-1,5.9-1,8.5
			c0,1.6,0.5,2.3,1.4,2.3c1.5,0,2.7-1.9,3.5-3.7c1.1-2.5,1.2-4.4,1.2-5.9c0-2-0.2-3.3-0.2-3.3s1-0.3,1.6-0.3c1.1,0,1.6,0.7,1.6,2.2
			c0,2.1-1,6.6-1,9.2c0,0.9,0.1,1.7,0.9,1.7c1.3,0,2.5-2.2,2.5-2.2l0.2,0.1c0,0-0.8,4-4.2,4c-1.3,0-2.4-0.5-2.4-2.2
			c0-0.7,0.2-1.7,0.2-1.7h-0.1c-1.1,2.1-2.5,4-5.2,4c-2.5,0-3-1.8-3-3.6C127.2,110.5,128,107.8,128,104.6z"/>
		<path class="st1" d="M144.9,104.8c0-1.8-0.4-3.1-0.4-3.1s1-0.3,1.6-0.3c1.2,0,1.8,0.8,1.8,2.1c0,0.9-0.3,1.7-0.3,1.7h0.1
			c1-2.1,2.4-4,4.9-4c2.4,0,2.9,1.8,2.9,4h0.1c1-2.1,2.4-4,4.9-4c2.4,0,3,1.6,3,3.7c0,2.7-0.9,6-0.9,8.2c0,0.7,0.1,1.3,0.8,1.3
			c1.4,0,2.6-2.2,2.6-2.2l0.2,0.1c0,0-0.8,4-4.1,4c-1.5,0-2.4-0.8-2.4-2.3c0-1.5,0.9-5.9,0.9-8.5c0-1.7-0.4-2.4-1.3-2.4
			c-1.4,0-2.5,2-3.3,3.8c-1,2.3-1.3,4.6-1.3,7.1c0,2.3-0.3,2.3-3.1,2.3c0-2.4,1-7.4,1-10.7c0-1.7-0.4-2.4-1.3-2.4
			c-1.4,0-2.5,2-3.3,3.8c-1,2.3-1.3,4.6-1.3,7.1c0,2.3-0.3,2.3-3.1,2.3C143.9,113.6,144.9,107.8,144.9,104.8z"/>
		<path class="st1" d="M177.1,117.1l0.2,0.1c0,0-0.3,0.5-0.3,1.5c0,1.4,0.7,2.9,2.5,2.9c1.8,0,3.6-1.5,3.6-4.4
			c0-0.8-0.1-1.7-0.1-2.8c0-0.6,0-1.1,0.1-1.5h-0.1c-0.9,1.5-2.5,3.2-4.6,3.2c-2.2,0-3.6-1.9-3.6-5.2c0-5.2,3.5-9.6,8.1-9.6
			c1.2,0,2.3,0.3,4.4,0.4l0.1,0.1c-0.4,1.6-1,5.8-1.2,8.7c-0.4,4.8,0.1,12.2-6.7,12.2c-3.5,0-4.8-1.9-4.8-3.4
			C174.5,118,175.7,117.5,177.1,117.1z M183.4,109c0.1-0.5,0.4-2.7,0.5-4.9c-0.1-0.9-0.6-1.3-1.5-1.3c-3.3,0-4.7,5-4.7,8
			c0,2,0.6,3.5,1.7,3.5C180.9,114.3,183,111,183.4,109z"/>
		<path class="st1" d="M196.7,101.3c2.6,0,4.1,1.5,4.1,3.3c0,4.1-4.9,4.9-8.1,5c0,2.6,1.3,4.8,3.5,4.8c2.4,0,3.8-2.1,3.8-2.1
			l0.2,0.1c0,0-0.8,4.1-5.1,4.1c-3.3,0-5.6-2.6-5.6-6.4C189.5,105.5,192.8,101.3,196.7,101.3z M197.7,104.6c0-1-0.5-2.1-1.3-2.1
			c-2,0-3.5,3-3.8,6C195.2,108.5,197.7,107.6,197.7,104.6z"/>
		<path class="st1" d="M204.6,104.8c0-1.8-0.4-3.1-0.4-3.1s1-0.3,1.6-0.3c1.2,0,1.8,0.8,1.8,2.1c0,0.9-0.3,1.7-0.3,1.7h0.1
			c1.1-2.1,2.5-4,5.2-4c2.4,0,3,1.6,3,3.7c0,2.7-0.9,6-0.9,8.2c0,0.7,0.1,1.3,0.8,1.3c1.4,0,2.6-2.2,2.6-2.2l0.2,0.1
			c0,0-0.8,4-4.1,4c-1.5,0-2.4-0.8-2.4-2.3c0-1.5,0.9-5.9,0.9-8.5c0-1.7-0.4-2.4-1.3-2.4c-1.5,0-2.8,2-3.5,3.8
			c-1,2.3-1.3,4.6-1.3,7.1c0,2.3-0.3,2.3-3.1,2.3C203.5,113.6,204.6,107.8,204.6,104.8z"/>
		<path class="st1" d="M226.8,101.3c2.6,0,4.1,1.5,4.1,3.3c0,4.1-4.9,4.9-8.1,5c0,2.6,1.3,4.8,3.5,4.8c2.4,0,3.8-2.1,3.8-2.1
			l0.2,0.1c0,0-0.8,4.1-5.1,4.1c-3.3,0-5.6-2.6-5.6-6.4C219.7,105.5,223,101.3,226.8,101.3z M227.9,104.6c0-1-0.5-2.1-1.3-2.1
			c-2,0-3.5,3-3.8,6C225.3,108.5,227.9,107.6,227.9,104.6z"/>
		<path class="st1" d="M234.8,104.8c0-1.8-0.4-3.1-0.4-3.1s1-0.3,1.6-0.3c1.2,0,1.8,0.8,1.8,2.1c0,0.9-0.3,1.7-0.3,1.7h0.1
			c1-1.9,2.4-3.9,4.4-3.9c1.3,0,1.6,0.7,1.6,1.4c0,0.7-0.4,1.4-0.7,1.8l-0.1,0.1c-0.6-0.5-1.3-0.8-1.9-0.8c-1.3,0-2.2,1.4-3,3.1
			c-1,2.3-1.3,4.6-1.3,7.1c0,2.3-0.3,2.3-3.1,2.3C233.7,113.6,234.8,107.8,234.8,104.8z"/>
		<path class="st1" d="M244.5,111.3c0-5.5,3.5-9.9,8.2-9.9c1,0,2.2,0.4,4.4,0.4l0.1,0.1c-0.4,1.4-0.9,6-1.2,8.6
			c-0.1,1.4-0.3,2.4-0.3,3c0,0.6,0.1,1.2,0.8,1.2c1.4,0,2.5-2.2,2.5-2.2l0.2,0.1c0,0-0.8,4-4.2,4c-1.5,0-2.4-0.7-2.4-2.4
			c0-0.2,0.1-0.7,0.1-1.2h-0.1c-0.9,1.7-2.5,3.7-4.7,3.7C245.9,116.5,244.5,114.5,244.5,111.3z M253.3,109c0.2-1.5,0.4-3.1,0.5-4.9
			c-0.1-1-0.6-1.4-1.5-1.4c-3.3,0-4.7,5-4.7,8.4c0,1.9,0.6,3.6,1.6,3.6C250.9,114.7,253,111.1,253.3,109z"/>
		<path class="st1" d="M262.3,104.6c0-1.1-0.3-1.4-1-1.7l0.1-1.2c1.6-0.2,3.2-1.8,4-3.3l0.7,0.3l-0.5,3h2c1.2,0,1.4-0.1,1.4-0.1
			c0,1.4-0.5,2.1-1.5,2.1c-0.3,0-2.1-0.1-2.1-0.1c-0.4,2.3-0.7,5.6-0.7,8c0,1.7,0.1,2.6,1.3,2.6c1.3,0,2.3-1.2,3.1-2.4l0.2,0.1
			c-0.3,1.7-1.3,4.4-4.1,4.4c-2,0-3.4-1.2-3.4-3.6C261.6,110.9,262.3,108.2,262.3,104.6z"/>
		<path class="st1" d="M278.2,101.3c2.6,0,4.1,1.5,4.1,3.3c0,4.1-4.9,4.9-8.1,5c0,2.6,1.3,4.8,3.5,4.8c2.4,0,3.8-2.1,3.8-2.1
			l0.2,0.1c0,0-0.8,4.1-5.1,4.1c-3.3,0-5.6-2.6-5.6-6.4C271,105.5,274.3,101.3,278.2,101.3z M279.2,104.6c0-1-0.5-2.1-1.3-2.1
			c-2,0-3.5,3-3.8,6C276.6,108.5,279.2,107.6,279.2,104.6z"/>
		<path class="st1" d="M284.2,111c0-5.4,3.7-9.7,8.5-9.7c0.7,0,1.2,0.1,1.4,0.2c0.1-1.2,0.1-2.4,0.1-3.7c0-1-0.1-2.4-0.4-3.6
			c3.1,0,3.5,1,3.5,3.4c0,4.5-1.5,13.5-1.5,15.7c0,0.6,0.1,1.2,0.8,1.2c1.4,0,2.5-2.2,2.5-2.2l0.2,0.1c0,0-0.8,4-4.2,4
			c-1.5,0-2.4-0.7-2.4-2.4c0-0.2,0.1-0.7,0.1-1.2h-0.1c-0.9,1.7-2.5,3.7-4.8,3.7C285.7,116.5,284.2,114.4,284.2,111z M293.4,109
			c0.2-1.5,0.4-3.1,0.5-5c-0.1-0.9-0.6-1.3-1.6-1.3c-3.3,0-4.9,4.7-4.9,8.1c0,2,0.5,3.9,1.8,3.9C291,114.7,293.1,111.2,293.4,109z"
			/>
		<path class="st1" d="M309.8,98.1c0-1.3-0.1-2.6-0.3-3.8c3,0,3.4,1.1,3.4,3.4c0,2-0.3,4.7-0.6,7.3c0.4-0.8,2-3.7,4.6-3.7
			c2.3,0,3.8,2.2,3.8,5.7c0,5.3-3.6,9.6-8.8,9.6c-1.4,0-3.5-0.3-3.5-2.6C308.4,112.2,309.8,104.7,309.8,98.1z M313,115.2
			c3.2,0,4.4-5.7,4.4-8.3c0-1.7-0.5-3.5-1.7-3.5c-1.5,0-3.3,2.9-3.9,5c-0.3,2.2-0.5,3.9-0.5,4.8C311.4,114.7,312,115.2,313,115.2z"
			/>
		<path class="st1" d="M322.4,120.2c1.9,0,3.4-1.3,4.6-2.9c-0.3-1.5-2.1-12-4.8-15.4v-0.1c0,0,1-0.2,1.8-0.2c0.9,0,1.4,0.2,2,1.2
			c1.8,2.9,2.7,9.4,2.9,11.3c1.3-3,3.3-6.7,3.3-9.7c0-1.8-0.9-2.4-0.9-2.4v-0.2c0,0,0.6-0.2,1.4-0.2c1,0,1.7,0.4,1.7,1.7
			c0,2.9-3.7,10-4,10.6c-1.3,2.3-4.4,9-8.6,9c-1.3,0-1.8-0.6-1.8-1.4c0-0.6,0.3-1.5,0.3-1.5C321.1,120.1,321.8,120.2,322.4,120.2z"
			/>
		<path class="st1" d="M342.8,120.2c1.9,0,3.4-1.3,4.6-2.9c-0.3-1.5-2.1-12-4.8-15.4v-0.1c0,0,1-0.2,1.8-0.2c0.9,0,1.4,0.2,2,1.2
			c1.8,2.9,2.7,9.4,2.9,11.3c1.3-3,3.3-6.7,3.3-9.7c0-1.8-0.9-2.4-0.9-2.4v-0.2c0,0,0.6-0.2,1.4-0.2c1,0,1.7,0.4,1.7,1.7
			c0,2.9-3.7,10-4,10.6c-1.3,2.3-4.3,9-8.6,9c-1.3,0-1.8-0.6-1.8-1.4c0-0.6,0.3-1.5,0.3-1.5C341.5,120.1,342.2,120.2,342.8,120.2z"
			/>
		<path class="st1" d="M364.2,101.3c4.1,0,6.5,3.1,6.5,6.8c0,4.1-2.7,8.4-7.5,8.4c-4,0-6.3-3.1-6.3-6.9
			C356.8,105.6,359.4,101.3,364.2,101.3z M367.3,107.8c0-2.7-0.9-5.2-3.2-5.2c-2.9,0-4.1,4.1-4.1,7.3c0,2.9,0.9,5.3,3.1,5.3
			C365.9,115.2,367.3,111.3,367.3,107.8z"/>
		<path class="st1" d="M374.4,104.6c0-1.4-0.2-2.9-0.2-2.9s0.9-0.3,1.6-0.3c1,0,1.7,0.6,1.7,2.4c0,2.2-1,5.9-1,8.5
			c0,1.6,0.5,2.3,1.4,2.3c1.5,0,2.7-1.9,3.5-3.7c1.1-2.5,1.2-4.4,1.2-5.9c0-2-0.2-3.3-0.2-3.3s1-0.3,1.6-0.3c1.1,0,1.6,0.7,1.6,2.2
			c0,2.1-1,6.6-1,9.2c0,0.9,0.1,1.7,0.9,1.7c1.3,0,2.5-2.2,2.5-2.2l0.2,0.1c0,0-0.8,4-4.2,4c-1.3,0-2.4-0.5-2.4-2.2
			c0-0.7,0.2-1.7,0.2-1.7h-0.1c-1.1,2.1-2.5,4-5.2,4c-2.5,0-3-1.8-3-3.6C373.5,110.5,374.4,107.8,374.4,104.6z"/>
		<path class="st1" d="M392.2,113.1c0.9,0,1.7,0.7,1.7,1.7s-0.7,1.7-1.7,1.7s-1.7-0.7-1.7-1.7S391.2,113.1,392.2,113.1z
			 M391.4,109.3c0-1.8,0.5-5.4,0.5-8.6c0-2.6-0.4-5.1-0.9-5.8v-0.1c0.7-0.2,1.2-0.3,1.8-0.3c1.2,0,2.7,0.3,2.7,2.4
			c0,2.4-2.4,8.5-2.4,12.1c0,0.5,0,1.5,0.3,1.9c-0.3,0.1-0.7,0.1-0.9,0.1C391.6,111,391.4,110.6,391.4,109.3z"/>
	</g>
</g>
</svg>
